<svg width="119" height="119" viewBox="0 0 119 119" fill="none" xmlns="http://www.w3.org/2000/svg">
<rect width="119" height="119" rx="30" fill="#F9C637"/>
<g clip-path="url(#clip0_123_1379)">
<path d="M91.0879 17.013C97.4879 14.122 104.241 20.2906 101.939 26.9254L95.662 45.0227C93.7782 50.4535 86.9524 52.1845 82.7083 48.3076L71.5289 38.0957C67.2848 34.2189 68.3925 27.2647 73.6311 24.8984L91.0879 17.013Z" fill="#F2F2F2"/>
<rect x="33" y="66.0625" width="9.819" height="28.024" transform="rotate(-45 33 66.0625)" fill="#476387"/>
<path d="M50.037 68.5515L88.6553 30.1552L99.5 19L98.5479 40.0479L60.0899 78.6045L50.037 68.5515Z" fill="#D7D7FA"/>
<path d="M40.2739 58.7886L78.8907 20.3907L100.5 18.5L88.6437 30.1437L50.185 68.6996L40.2739 58.7886Z" fill="#F1F1FB"/>
<rect x="42.0209" y="87.9705" width="17" height="7" transform="rotate(-135 42.0209 87.9705)" fill="#476387"/>
<path d="M80.7691 62.4585L82.5843 64.2737C86.4895 68.1789 86.4895 74.5106 82.5843 78.4158L69.0149 91.9852L60.1286 83.099L80.7691 62.4585Z" fill="#D7D7FA"/>
<path d="M40.7492 35.8914C44.6544 31.9861 50.9861 31.9861 54.8913 35.8914L57 38.0001L36.1798 58.8203L27 49.6405L40.7492 35.8914Z" fill="#F1F1FB"/>
<ellipse cx="26.4851" cy="92.4851" rx="6.82156" ry="10.835" transform="rotate(45 26.4851 92.4851)" fill="#FF0B37"/>
<circle cx="75.5" cy="43.5" r="3.5" fill="#51BFFA"/>
<path d="M82.2721 84.8478C86.6122 80.5077 88.4846 74.3235 87.2808 68.3047C86.1662 62.7316 87.8999 57.0048 91.919 52.9859L92.0146 52.8903C100.209 44.6963 102.875 35.5708 103.669 29.3582C104.508 20.7237 103.549 18.7572 103.026 15.9767C100.157 15.4287 98.3595 14.5151 89.6448 15.3343C83.4323 16.1281 74.3068 18.7944 66.1127 26.9884L66.0171 27.084C61.9981 31.1031 56.2715 32.8369 50.6982 31.7222C44.6795 30.5184 38.4953 32.3909 34.1552 36.731L20.7346 50.1516L31.8421 61.2591L28.0313 65.0701L32.6319 69.6707L23.9924 75.8522L27.1101 78.9698C25.2503 79.4082 23.1449 80.4151 21.0765 82.4835C12.4735 91.5608 15.5394 102.775 15.4973 103.506C18.6238 103.978 28.2417 105.682 36.5197 97.9267C38.5879 95.8585 39.595 93.7531 40.0334 91.8932L43.151 95.0108L49.3325 86.3713L53.9331 90.972L57.744 87.1611L68.8515 98.2686L82.2721 84.8478ZM20.2295 98.7739C20.2024 95.7907 20.7536 90.1802 24.7636 86.1704C28.6784 82.2556 32.448 84.3108 33.5701 85.4329C34.6923 86.555 36.7474 90.3247 32.8327 94.2395C28.8218 98.2504 23.2095 98.8008 20.2295 98.7739ZM69.8 30.6754C75.4896 24.9858 82.3192 21.5735 90.0992 20.5334C93.7663 20.0432 96.8014 20.2226 98.5741 20.4288C98.7806 22.2034 98.9598 25.2378 98.4698 28.9039C97.4296 36.6839 94.0174 43.5135 88.3279 49.2031L61.3325 76.1982L42.8048 57.6703L69.8 30.6754ZM28.109 50.1514L37.8425 40.4179C40.9469 37.3134 45.3706 35.974 49.6756 36.8351C51.7572 37.2514 53.8551 37.3626 55.9127 37.1881L35.5292 57.5718L28.109 50.1514ZM42.4893 86.9748L32.0283 76.5137L36.3692 73.4078L45.5952 82.6338L42.4893 86.9748ZM35.4054 65.0697L39.1177 61.3574L57.6454 79.8851L53.9331 83.5974L35.4054 65.0697ZM68.8516 90.8941L61.4312 83.4737L81.8148 63.0903C81.6404 65.1479 81.7515 67.2458 82.1678 69.3276C83.0288 73.6326 81.6894 78.0563 78.585 81.1608L68.8516 90.8941Z" fill="black"/>
<path d="M69.7204 49.281C72.7783 52.3389 77.7538 52.3389 80.8117 49.281C83.8696 46.2231 83.8696 41.2475 80.8117 38.1897C77.7538 35.1318 72.7783 35.1318 69.7204 38.1897C66.6625 41.2474 66.6625 46.2231 69.7204 49.281ZM77.1246 41.8767C78.1494 42.9015 78.1494 44.5691 77.1246 45.5939C76.0999 46.6187 74.4325 46.6187 73.4077 45.5939C72.3829 44.5691 72.3829 42.9015 73.4077 41.8769C74.4323 40.8519 76.0999 40.8519 77.1246 41.8767Z" fill="black"/>
</g>
<defs>
<clipPath id="clip0_123_1379">
<rect width="89" height="89" fill="white" transform="translate(15 15)"/>
</clipPath>
</defs>
</svg>
