<svg width="80" height="24" viewBox="0 0 80 24" fill="none" xmlns="http://www.w3.org/2000/svg">
<g id="logo">
<path d="M42.1203 20.5845C42.2915 20.5551 42.466 20.5252 42.6355 20.5252C42.8157 20.5252 42.996 20.5252 43.266 20.7959C43.8068 21.5177 41.9144 22.6904 41.3744 22.8714C40.0228 23.4128 38.5814 23.4128 37.2305 23.0516C35.0682 22.5101 34.0771 21.0667 34.0771 18.63V6.1782C33.4465 6.1782 32.9963 6.1782 32.9963 5.36669C32.9963 4.82592 33.1765 4.55448 33.8968 4.10348L39.4827 0.765557C40.0228 0.404337 40.8336 0.224081 40.8336 1.12678V4.55448H42.4552C42.996 4.55448 43.1762 4.9157 43.1762 5.36669C43.1762 5.81769 42.996 6.1782 42.4552 6.1782H40.8336V18.9913C40.8336 19.0815 40.8236 19.1717 40.8136 19.262C40.7937 19.4425 40.7737 19.623 40.8336 19.8035C41.0407 20.7697 41.5634 20.68 42.1203 20.5845Z" fill="#98FF99"/>
<path fill-rule="evenodd" clip-rule="evenodd" d="M56.7788 4.91663C54.4362 3.83368 52.0038 3.83368 49.6618 4.73567C45.9683 6.17984 44.0767 8.977 43.8059 12.8564C43.5359 16.195 44.6167 19.0827 47.2294 21.2479C49.572 23.143 52.3643 23.594 55.247 23.0526C57.2291 22.6913 58.9405 21.6091 60.2016 19.9847C60.2016 19.9847 60.2016 19.8949 60.2921 19.8949C60.4723 19.5337 60.2016 19.0827 59.7513 18.9922H59.5711C59.2705 18.9922 58.9699 19.0725 58.6693 19.1528C58.5196 19.1928 58.3699 19.2328 58.2202 19.2629C55.3375 19.8044 52.7248 18.8119 51.4637 16.195L51.4233 16.1209C50.9048 15.17 50.5511 14.5214 50.1121 12.5857H59.7513C60.6526 12.5857 60.8322 12.4054 60.8322 11.5034C60.8322 8.5253 59.5711 6.17984 56.7788 4.91663ZM54.977 9.87899C54.977 10.5109 54.6164 10.8715 53.9859 10.8715H50.1121C50.1121 9.24703 50.2924 7.62331 51.193 6.17984C52.0942 4.6459 53.5356 4.73567 54.3464 6.26962C54.977 7.44305 55.0667 8.61578 54.977 9.87899Z" fill="#98FF99"/>
<path fill-rule="evenodd" clip-rule="evenodd" d="M79.3007 21.0675C79.2109 20.6165 79.1204 20.075 79.1204 19.624C79.0757 18.0961 79.0533 16.5681 79.0308 15.0402C79.0082 13.5002 78.9856 11.9603 78.9402 10.4203C78.8504 7.53267 77.409 5.54773 74.7059 4.73551C71.9137 3.924 69.2105 3.924 66.4183 4.91647C65.3374 5.27699 64.3464 5.90895 63.8056 6.99119C63.2655 7.98437 63.3553 9.06662 63.9858 9.87883C64.8871 10.9618 66.1482 10.9618 67.3188 10.691C68.2201 10.5101 68.7609 9.69857 68.8507 8.61562L68.8837 8.38329C68.9625 7.82934 69.0413 7.27498 69.1207 6.72116C69.3017 5.81846 69.8418 5.27699 70.7423 5.27699C71.5531 5.27699 72.0034 5.72869 72.1837 6.72116C72.2291 7.26432 72.2517 7.83045 72.2743 8.39649V8.39661C72.2968 8.95837 72.3192 9.52004 72.3639 10.0591C72.5036 11.5276 69.8304 12.1833 68.0748 12.614C67.5648 12.7391 67.1322 12.8452 66.8686 12.9467C65.2469 13.4882 63.8056 14.3004 62.8152 15.7439C61.1031 18.1798 61.7337 21.5185 64.1661 22.7817C66.9583 24.2251 71.1028 23.6844 72.8142 20.2552C73.355 21.5185 74.1658 22.4212 75.4269 22.7817C75.9886 22.942 76.6208 23.0314 77.1975 23.1128C77.2689 23.1229 77.3395 23.1329 77.409 23.1429C78.1294 23.2334 80.6516 23.5034 79.8415 22.2402C79.7289 21.8462 79.5812 21.5926 79.4642 21.3918L79.464 21.3916C79.3937 21.2708 79.3344 21.1691 79.3007 21.0675ZM72.3639 17.7288C72.3639 18.7213 71.3729 19.5335 70.3825 19.443C69.3915 19.3533 68.7609 18.7213 68.6711 17.6383C68.5799 16.8268 68.8507 16.0146 69.3017 15.3827C70.1118 14.3004 71.1029 13.578 72.3639 12.8562C72.3639 13.3977 72.3739 13.9392 72.3839 14.4806C72.4038 15.5633 72.4238 16.6459 72.3639 17.7288Z" fill="#98FF99"/>
<path d="M7.43955 4.5272C8.7935 4.1859 10.4812 4.28155 12.0337 5.57699C12.8492 6.25742 13.6773 6.32391 14.4089 6.15524C14.8131 6.06205 15.1622 5.90169 15.4275 5.74483C15.6897 5.58978 15.8794 5.43249 15.9598 5.33869C16.4211 4.80062 17.2312 4.73836 17.7693 5.19963C18.3073 5.6609 18.3696 6.47103 17.9083 7.0091C17.3734 7.63303 16.2842 8.35672 14.9855 8.65614C13.6158 8.97193 11.9271 8.83057 10.3895 7.54762C9.58906 6.87977 8.7913 6.83325 8.06688 7.01586C7.28283 7.2135 6.64024 7.67743 6.41087 7.89921C5.90137 8.39185 5.08897 8.37818 4.59633 7.86868C4.10369 7.35918 4.11736 6.54678 4.62686 6.05414C5.11894 5.57834 6.14601 4.85327 7.43955 4.5272Z" fill="#98FF99"/>
<path d="M3.6841 4.19799C3.94447 3.54433 3.61953 2.79644 2.95832 2.52754C2.29711 2.25864 1.55002 2.57055 1.28965 3.22421C-1.1846 9.43575 0.000787777 16.5603 3.99354 20.7996C4.48303 21.3193 5.29746 21.3522 5.81262 20.8732C6.32778 20.3941 6.34859 19.5845 5.8591 19.0648C2.65438 15.6622 1.52084 9.62881 3.6841 4.19799Z" fill="#98FF99"/>
<path d="M19.5487 2.52754C18.8875 2.79644 18.5625 3.54433 18.8229 4.19799C20.9861 9.62881 19.8526 15.6622 16.6479 19.0648C16.1584 19.5845 16.1792 20.3941 16.6944 20.8732C17.2095 21.3522 18.024 21.3193 18.5134 20.7996C22.5062 16.5603 23.6916 9.43575 21.2173 3.22421C20.957 2.57055 20.2099 2.25864 19.5487 2.52754Z" fill="#98FF99"/>
<path d="M8.83329 20.0857C8.12457 20.0857 7.55004 20.6602 7.55004 21.369C7.55004 22.0777 8.12457 22.6522 8.83329 22.6522H13.5896C14.2983 22.6522 14.8729 22.0777 14.8729 21.369C14.8729 20.6602 14.2983 20.0857 13.5896 20.0857H8.83329Z" fill="#98FF99"/>
<path d="M24.6421 7.79364V7.74183C24.6421 7.03311 25.2166 6.45858 25.9254 6.45858C26.6341 6.45858 27.2086 7.03311 27.2086 7.74183V7.79364C27.2086 8.50237 26.6341 9.0769 25.9254 9.0769C25.2166 9.0769 24.6421 8.50237 24.6421 7.79364Z" fill="#98FF99"/>
<path d="M26.0611 12.0219C25.3563 11.9476 24.7247 12.4587 24.6504 13.1635C24.5317 14.2888 24.2165 15.3756 23.9208 16.1962C23.7744 16.6025 23.6362 16.9342 23.536 17.1615C23.4871 17.2725 23.4369 17.383 23.3834 17.4919L23.383 17.4926C23.0646 18.1254 23.3193 18.8966 23.952 19.2153C24.5817 19.5326 25.3488 19.2822 25.6706 18.6562C25.6706 18.6562 25.817 18.3497 25.8844 18.1968C26.0046 17.9242 26.1657 17.5369 26.3353 17.0663C26.6716 16.133 27.0549 14.8342 27.2027 13.4327C27.277 12.7278 26.7659 12.0962 26.0611 12.0219Z" fill="#98FF99"/>
</g>
</svg>
